# Wavefront OBJ file automatically generated by Tiled2Unity

# Vertices (Count = 159)
v 0 -0.319999992847443 0
v -0.319999992847443 -0.319999992847443 0
v -0.319999992847443 0 0
v 0 0 0
v 0 -0.639999985694885 0
v -0.319999992847443 -0.639999985694885 0
v 0 -0.959999978542328 0
v -0.319999992847443 -0.959999978542328 0
v 0 -1.27999997138977 0
v -0.319999992847443 -1.27999997138977 0
v -0.319999992847443 -1.59999990463257 0
v -0.639999985694885 -1.59999990463257 0
v -0.639999985694885 -1.27999997138977 0
v -2.87999987602234 -1.59999990463257 0
v -3.19999980926514 -1.59999990463257 0
v -3.19999980926514 -1.27999997138977 0
v -2.87999987602234 -1.27999997138977 0
v -3.51999998092651 -1.59999990463257 0
v -3.51999998092651 -1.27999997138977 0
v -3.83999991416931 -1.59999990463257 0
v -3.83999991416931 -1.27999997138977 0
v -0.319999992847443 -1.91999995708466 0
v -0.639999985694885 -1.91999995708466 0
v -0.959999978542328 -1.91999995708466 0
v -0.959999978542328 -1.59999990463257 0
v -1.27999997138977 -1.91999995708466 0
v -1.27999997138977 -1.59999990463257 0
v -1.59999990463257 -1.91999995708466 0
v -1.59999990463257 -1.59999990463257 0
v -1.91999995708466 -1.91999995708466 0
v -1.91999995708466 -1.59999990463257 0
v -3.83999991416931 -1.91999995708466 0
v -4.15999984741211 -1.91999995708466 0
v -4.15999984741211 -1.59999990463257 0
v -1.59999990463257 -2.24000000953674 0
v -1.91999995708466 -2.24000000953674 0
v -2.24000000953674 -2.24000000953674 0
v -2.24000000953674 -1.91999995708466 0
v -3.83999991416931 -2.24000000953674 0
v -4.15999984741211 -2.24000000953674 0
v -1.27999997138977 -2.55999994277954 0
v -1.59999990463257 -2.55999994277954 0
v -1.27999997138977 -2.24000000953674 0
v -1.91999995708466 -2.55999994277954 0
v -3.19999980926514 -2.55999994277954 0
v -3.51999998092651 -2.55999994277954 0
v -3.51999998092651 -2.24000000953674 0
v -3.19999980926514 -2.24000000953674 0
v -3.83999991416931 -2.55999994277954 0
v -4.15999984741211 -2.55999994277954 0
v -1.59999990463257 -2.87999987602234 0
v -1.91999995708466 -2.87999987602234 0
v -1.59999990463257 -3.19999980926514 0
v -1.91999995708466 -3.19999980926514 0
v -2.24000000953674 -3.19999980926514 0
v -2.24000000953674 -2.87999987602234 0
v -3.83999991416931 -3.19999980926514 0
v -4.15999984741211 -3.19999980926514 0
v -4.15999984741211 -2.87999987602234 0
v -3.83999991416931 -2.87999987602234 0
v -4.48000001907349 -3.19999980926514 0
v -4.48000001907349 -2.87999987602234 0
v -4.79999971389771 -3.19999980926514 0
v -4.79999971389771 -2.87999987602234 0
v -5.11999988555908 -3.19999980926514 0
v -5.11999988555908 -2.87999987602234 0
v -1.91999995708466 -3.51999998092651 0
v -2.24000000953674 -3.51999998092651 0
v -4.79999971389771 -3.51999998092651 0
v -5.11999988555908 -3.51999998092651 0
v -2.24000000953674 -3.83999991416931 0
v -2.55999994277954 -3.83999991416931 0
v -2.55999994277954 -3.51999998092651 0
v -4.79999971389771 -3.83999991416931 0
v -5.11999988555908 -3.83999991416931 0
v -5.44000005722046 -3.83999991416931 0
v -5.44000005722046 -3.51999998092651 0
v -5.75999975204468 -3.83999991416931 0
v -5.75999975204468 -3.51999998092651 0
v -2.55999994277954 -4.15999984741211 0
v -2.87999987602234 -4.15999984741211 0
v -2.87999987602234 -3.83999991416931 0
v -3.19999980926514 -4.15999984741211 0
v -3.19999980926514 -3.83999991416931 0
v -3.51999998092651 -4.15999984741211 0
v -3.51999998092651 -3.83999991416931 0
v -3.83999991416931 -4.15999984741211 0
v -3.83999991416931 -3.83999991416931 0
v -4.15999984741211 -4.15999984741211 0
v -4.15999984741211 -3.83999991416931 0
v -3.83999991416931 -4.48000001907349 0
v -4.15999984741211 -4.48000001907349 0
v -3.83999991416931 -4.79999971389771 0
v -4.15999984741211 -4.79999971389771 0
v -4.48000001907349 -4.79999971389771 0
v -4.48000001907349 -4.48000001907349 0
v -4.79999971389771 -4.79999971389771 0
v -4.79999971389771 -4.48000001907349 0
v -5.11999988555908 -4.79999971389771 0
v -5.11999988555908 -4.48000001907349 0
v -5.75999975204468 -4.79999971389771 0
v -6.07999992370605 -4.79999971389771 0
v -6.07999992370605 -4.48000001907349 0
v -5.75999975204468 -4.48000001907349 0
v -6.39999961853027 -4.79999971389771 0
v -6.39999961853027 -4.48000001907349 0
v -6.71999979019165 -4.79999971389771 0
v -6.71999979019165 -4.48000001907349 0
v -7.03999996185303 -4.79999971389771 0
v -7.03999996185303 -4.48000001907349 0
v -7.35999965667725 -4.79999971389771 0
v -7.35999965667725 -4.48000001907349 0
v -7.67999982833862 -4.79999971389771 0
v -7.67999982833862 -4.48000001907349 0
v -4.79999971389771 -5.11999988555908 0
v -5.11999988555908 -5.11999988555908 0
v -5.75999975204468 -5.11999988555908 0
v -6.07999992370605 -5.11999988555908 0
v -6.39999961853027 -5.11999988555908 0
v -7.67999982833862 -5.11999988555908 0
v -8 -5.11999988555908 0
v -8 -4.79999971389771 0
v -8.31999969482422 -5.11999988555908 0
v -8.31999969482422 -4.79999971389771 0
v -9.92000007629395 -5.11999988555908 0
v -10.2399997711182 -5.11999988555908 0
v -10.2399997711182 -4.79999971389771 0
v -9.92000007629395 -4.79999971389771 0
v -10.5599994659424 -5.11999988555908 0
v -10.5599994659424 -4.79999971389771 0
v -10.8800001144409 -5.11999988555908 0
v -10.8800001144409 -4.79999971389771 0
v -11.1999998092651 -5.11999988555908 0
v -11.1999998092651 -4.79999971389771 0
v -11.5199995040894 -5.11999988555908 0
v -11.5199995040894 -4.79999971389771 0
v -4.79999971389771 -5.44000005722046 0
v -5.11999988555908 -5.44000005722046 0
v -5.44000005722046 -5.44000005722046 0
v -5.44000005722046 -5.11999988555908 0
v -5.75999975204468 -5.44000005722046 0
v -6.07999992370605 -5.44000005722046 0
v -8.31999969482422 -5.44000005722046 0
v -8.63999938964844 -5.44000005722046 0
v -8.63999938964844 -5.11999988555908 0
v -8.96000003814697 -5.44000005722046 0
v -8.96000003814697 -5.11999988555908 0
v -9.27999973297119 -5.44000005722046 0
v -9.27999973297119 -5.11999988555908 0
v -9.59999942779541 -5.44000005722046 0
v -9.59999942779541 -5.11999988555908 0
v -9.92000007629395 -5.44000005722046 0
v -10.2399997711182 -5.44000005722046 0
v -11.1999998092651 -5.44000005722046 0
v -11.5199995040894 -5.44000005722046 0
v -11.8400001525879 -5.44000005722046 0
v -11.8400001525879 -5.11999988555908 0
v -12.1599998474121 -5.44000005722046 0
v -12.1599998474121 -5.11999988555908 0

# Texture Coorindates (Count = 8)
vt 0.0001220703 0.5001221
vt 0.4998779 0.5001221
vt 0.4998779 0.9998779
vt 0.0001220703 0.9998779
vt 0.5001221 0.5001221
vt 0.9998779 0.5001221
vt 0.9998779 0.9998779
vt 0.5001221 0.9998779

# Normal
vn 0 0 -1

# Groups (Count = 1)
g mesh_[00]_[00]
f  1/1/1  2/2/1  3/3/1  4/4/1 
f  5/1/1  6/2/1  2/3/1  1/4/1 
f  7/1/1  8/2/1  6/3/1  5/4/1 
f  9/1/1  10/2/1  8/3/1  7/4/1 
f  11/1/1  12/2/1  13/3/1  10/4/1 
f  14/5/1  15/6/1  16/7/1  17/8/1 
f  15/5/1  18/6/1  19/7/1  16/8/1 
f  18/5/1  20/6/1  21/7/1  19/8/1 
f  22/1/1  23/2/1  12/3/1  11/4/1 
f  23/1/1  24/2/1  25/3/1  12/4/1 
f  24/1/1  26/2/1  27/3/1  25/4/1 
f  26/1/1  28/2/1  29/3/1  27/4/1 
f  28/1/1  30/2/1  31/3/1  29/4/1 
f  32/5/1  33/6/1  34/7/1  20/8/1 
f  35/1/1  36/2/1  30/3/1  28/4/1 
f  36/1/1  37/2/1  38/3/1  30/4/1 
f  39/5/1  40/6/1  33/7/1  32/8/1 
f  41/1/1  42/2/1  35/3/1  43/4/1 
f  42/1/1  44/2/1  36/3/1  35/4/1 
f  45/5/1  46/6/1  47/7/1  48/8/1 
f  46/5/1  49/6/1  39/7/1  47/8/1 
f  49/5/1  50/6/1  40/7/1  39/8/1 
f  51/1/1  52/2/1  44/3/1  42/4/1 
f  53/1/1  54/2/1  52/3/1  51/4/1 
f  54/1/1  55/2/1  56/3/1  52/4/1 
f  57/5/1  58/6/1  59/7/1  60/8/1 
f  58/5/1  61/6/1  62/7/1  59/8/1 
f  61/5/1  63/6/1  64/7/1  62/8/1 
f  63/5/1  65/6/1  66/7/1  64/8/1 
f  67/1/1  68/2/1  55/3/1  54/4/1 
f  69/5/1  70/6/1  65/7/1  63/8/1 
f  71/1/1  72/2/1  73/3/1  68/4/1 
f  74/5/1  75/6/1  70/7/1  69/8/1 
f  75/5/1  76/6/1  77/7/1  70/8/1 
f  76/5/1  78/6/1  79/7/1  77/8/1 
f  80/1/1  81/2/1  82/3/1  72/4/1 
f  81/1/1  83/2/1  84/3/1  82/4/1 
f  83/1/1  85/2/1  86/3/1  84/4/1 
f  85/1/1  87/2/1  88/3/1  86/4/1 
f  87/1/1  89/2/1  90/3/1  88/4/1 
f  91/1/1  92/2/1  89/3/1  87/4/1 
f  93/1/1  94/2/1  92/3/1  91/4/1 
f  94/1/1  95/2/1  96/3/1  92/4/1 
f  95/1/1  97/2/1  98/3/1  96/4/1 
f  97/1/1  99/2/1  100/3/1  98/4/1 
f  101/1/1  102/2/1  103/3/1  104/4/1 
f  102/1/1  105/2/1  106/3/1  103/4/1 
f  105/1/1  107/2/1  108/3/1  106/4/1 
f  107/1/1  109/2/1  110/3/1  108/4/1 
f  109/1/1  111/2/1  112/3/1  110/4/1 
f  111/1/1  113/2/1  114/3/1  112/4/1 
f  115/1/1  116/2/1  99/3/1  97/4/1 
f  117/1/1  118/2/1  102/3/1  101/4/1 
f  118/1/1  119/2/1  105/3/1  102/4/1 
f  120/1/1  121/2/1  122/3/1  113/4/1 
f  121/1/1  123/2/1  124/3/1  122/4/1 
f  125/1/1  126/2/1  127/3/1  128/4/1 
f  126/1/1  129/2/1  130/3/1  127/4/1 
f  129/1/1  131/2/1  132/3/1  130/4/1 
f  131/1/1  133/2/1  134/3/1  132/4/1 
f  133/1/1  135/2/1  136/3/1  134/4/1 
f  137/1/1  138/2/1  116/3/1  115/4/1 
f  138/1/1  139/2/1  140/3/1  116/4/1 
f  139/1/1  141/2/1  117/3/1  140/4/1 
f  141/1/1  142/2/1  118/3/1  117/4/1 
f  143/1/1  144/2/1  145/3/1  123/4/1 
f  144/1/1  146/2/1  147/3/1  145/4/1 
f  146/1/1  148/2/1  149/3/1  147/4/1 
f  148/1/1  150/2/1  151/3/1  149/4/1 
f  150/1/1  152/2/1  125/3/1  151/4/1 
f  152/1/1  153/2/1  126/3/1  125/4/1 
f  154/1/1  155/2/1  135/3/1  133/4/1 
f  155/1/1  156/2/1  157/3/1  135/4/1 
f  156/1/1  158/2/1  159/3/1  157/4/1 
